<svg xmlns="http://www.w3.org/2000/svg" viewBox="0 0 133.82 79.37"><defs><style>.cls-1{fill:#485e88;}.cls-2{fill:#d7c596;}.cls-2,.cls-3,.cls-4{fill-rule:evenodd;}.cls-3{fill:#ef3b25;}.cls-4{fill:#8dbeb5;}</style></defs><g id="Layer_2" data-name="Layer 2"><g id="B_W_Version_2" data-name="B&amp;W Version 2"><path class="cls-1" d="M1.6,45.89,0,45.61l2.63-15c.09-.37-.38-.8-1-1.5L2.77,28a4,4,0,0,1,1.51,2.45c.65-.47,1.78-1.23,2.49-1.65a3.86,3.86,0,0,1,1.36-.42,3.39,3.39,0,0,1,2.82.75L9.87,30.39a2.17,2.17,0,0,0-2.26-.19l-2.4,1.55L4,32.69Z"/><path class="cls-1" d="M17.1,45.85A5.17,5.17,0,0,1,11.79,41a27.6,27.6,0,0,1,1.46-8.37,6.88,6.88,0,0,1,2.3-3v0a7.58,7.58,0,0,1,6.86-1.27,4.61,4.61,0,0,1,3.24,3.38,6.52,6.52,0,0,1-.42,4.46,2,2,0,0,1-1.17.9c-1.6.37-10.43,1-10.43,1A16.06,16.06,0,0,0,13.44,41,3.48,3.48,0,0,0,17.1,44.2H18a6,6,0,0,0,5.12-3.48l1.55.57A7.06,7.06,0,0,1,22,44.53a7.2,7.2,0,0,1-4,1.32ZM13.91,36.4l9.77-.89c.05,0,.09,0,.19-.19a5.11,5.11,0,0,0,.19-3.19,3.18,3.18,0,0,0-2.17-2.21,5.65,5.65,0,0,0-2-.24v.05a5.93,5.93,0,0,0-5.12,3.48A21.28,21.28,0,0,0,13.91,36.4Z"/><path class="cls-1" d="M32.23,45.66l-3-17.86,1.74.29,2.58,15,8-15.32,1.69.29L33.88,45.94Z"/><path class="cls-1" d="M49.24,45.85A5.17,5.17,0,0,1,43.93,41a27.3,27.3,0,0,1,1.46-8.37,6.88,6.88,0,0,1,2.3-3v0a7.58,7.58,0,0,1,6.86-1.27,4.61,4.61,0,0,1,3.24,3.38,6.58,6.58,0,0,1-.42,4.46,2,2,0,0,1-1.18.9c-1.59.37-10.43,1-10.43,1A16,16,0,0,0,45.58,41a3.48,3.48,0,0,0,3.66,3.24h.89a5.93,5.93,0,0,0,5.12-3.48l1.55.57a7,7,0,0,1-2.67,3.24,7.2,7.2,0,0,1-4,1.32ZM46.05,36.4l9.77-.89s.09,0,.19-.19a5,5,0,0,0,.18-3.19A3.15,3.15,0,0,0,54,29.92a5.65,5.65,0,0,0-2-.24v.05a5.93,5.93,0,0,0-5.12,3.48A21.28,21.28,0,0,0,46.05,36.4Z"/><path class="cls-1" d="M62.87,46.32c-.85-.8-1.74-1.7-1.51-2.92l4.18-23.72,1.65.28L63,43.68c-.1.38.33.85,1,1.51Z"/><g id="Symbol"><path class="cls-2" d="M94.19,5.77A31.14,31.14,0,1,1,64.28,54.88a.93.93,0,0,1-.21-.6,1,1,0,0,1,1.76-.57A29.2,29.2,0,1,0,94,7.7a3.12,3.12,0,0,1-5.76-.32,29.25,29.25,0,0,0-7.75,1.4,1.12,1.12,0,0,1-.31.05,1,1,0,0,1-.3-1.9,31.6,31.6,0,0,1,8.33-1.49,3.11,3.11,0,0,1,6,.33Z"/><path class="cls-3" d="M124.16,23.76h0v0h0a37,37,0,0,1-18.6,46.05,2.09,2.09,0,0,1,0,.25A3.11,3.11,0,0,1,100,72a37.19,37.19,0,0,1-10.56,1.53,36.75,36.75,0,0,1-17-4.11h0a1,1,0,0,1,.45-1.84,1,1,0,0,1,.45.11h0a35.14,35.14,0,0,0,26,2.47v-.07a3.12,3.12,0,0,1,5.46-2,35.09,35.09,0,0,0,17.53-43.59h0v0a.92.92,0,0,1-.06-.33,1,1,0,0,1,1-1A1,1,0,0,1,124.16,23.76Z"/><path class="cls-4" d="M132.07,40.69a3.11,3.11,0,0,1-1,5.88,42.83,42.83,0,0,1-41.64,32.8c-.8,0-1.59,0-2.38-.07h0a1,1,0,0,1,.06-1.94h.07q1.14.06,2.28.06A40.87,40.87,0,0,0,129.17,46.2a3.12,3.12,0,0,1,1-5.78q.18-1.91.18-3.87A40.84,40.84,0,0,0,111,1.82h0a1,1,0,0,1-.47-.84A1,1,0,0,1,112,.16a42.81,42.81,0,0,1,20.25,36.39C132.27,38,132.2,39.32,132.07,40.69Z"/></g><path class="cls-1" d="M76.85,32.64H73.94l-1.8,10.2a9.2,9.2,0,0,0,1.33,1.27l-2.24,2.3c-.28,0-.64-.09-.71-.24l-.08-.09v.05c-1-.94-1.77-1.93-1.53-3.29l1.8-10.2H68.82l.58-3.29h1.88l1.55-8.78h3.24l-1.55,8.78h2.91Z"/><path class="cls-1" d="M84.39,45.56a6.11,6.11,0,0,1-3.76-1.31A4.69,4.69,0,0,1,79,40.82a19.41,19.41,0,0,1,.36-4,21.57,21.57,0,0,1,1-3.95,6.69,6.69,0,0,1,2.8-3.38,8.45,8.45,0,0,1,4.25-1.41h.7a6.18,6.18,0,0,1,3.71,1.36A5.06,5.06,0,0,1,93.56,33a29.59,29.59,0,0,1-.32,3.38L93,38l-10.62.8a9.63,9.63,0,0,0,0,1.32A2.61,2.61,0,0,0,85,42.37h.7c1.41,0,3.08-1.46,3.67-3.2l3.12.66a8.63,8.63,0,0,1-3.17,4.42,8,8,0,0,1-4.18,1.31ZM86.9,31.33a3.87,3.87,0,0,0-3.41,2.3,11,11,0,0,0-.67,1.92c.43,0,6.88-.65,7.35-.65,0-.38,0-.94,0-1.27a2.52,2.52,0,0,0-2.6-2.3Z"/><path class="cls-1" d="M99.56,45.61H96.37l4.41-25H104l-2.61,14.75h.8L109.28,27l2.39,1.88-6,6.86a4.33,4.33,0,0,1,1.4,1.65l3,8.27h-3.67l-2.51-6.77a.52.52,0,0,0-.46-.33H100.8Z"/></g></g></svg>