<svg xmlns="http://www.w3.org/2000/svg" viewBox="0 0 135.46 79.37"><defs><style>.cls-1{fill:#808285;}.cls-2{fill:#39ba90;}.cls-2,.cls-3,.cls-4{fill-rule:evenodd;}.cls-3{fill:#9bb932;}.cls-4{fill:#f6861f;}</style></defs><g id="Layer_2" data-name="Layer 2"><g id="B_W_Version_2" data-name="B&amp;W Version 2"><path class="cls-1" d="M1.6,46.46,0,46.17l2.63-15c.09-.38-.38-.8-1-1.51l1.17-1.12A4,4,0,0,1,4.28,31c.65-.47,1.78-1.22,2.49-1.65a4.37,4.37,0,0,1,1.36-.42,3.42,3.42,0,0,1,2.82.75L9.87,31a2.2,2.2,0,0,0-2.26-.19l-2.4,1.55L4,33.25Z"/><path class="cls-1" d="M17.1,46.41a5.17,5.17,0,0,1-5.31-4.84,27.54,27.54,0,0,1,1.46-8.36,6.88,6.88,0,0,1,2.3-3V30.2a7.58,7.58,0,0,1,6.86-1.27,4.63,4.63,0,0,1,3.24,3.38,6.6,6.6,0,0,1-.42,4.47,1.92,1.92,0,0,1-1.17.89c-1.6.38-10.43,1-10.43,1a16,16,0,0,0-.19,2.86,3.47,3.47,0,0,0,3.66,3.24H18a6,6,0,0,0,5.12-3.47l1.55.56A7,7,0,0,1,22,45.09a7.2,7.2,0,0,1-4,1.32ZM13.91,37l9.77-.9c.05,0,.09,0,.19-.19a5.11,5.11,0,0,0,.19-3.19,3.18,3.18,0,0,0-2.17-2.21,5.42,5.42,0,0,0-2-.23v0a5.93,5.93,0,0,0-5.12,3.48A21.09,21.09,0,0,0,13.91,37Z"/><path class="cls-1" d="M32.23,46.22l-3-17.85,1.74.28,2.58,15,8-15.31,1.7.28L33.88,46.5Z"/><path class="cls-1" d="M49.24,46.41a5.17,5.17,0,0,1-5.31-4.84,27.24,27.24,0,0,1,1.46-8.36,6.88,6.88,0,0,1,2.3-3V30.2a7.58,7.58,0,0,1,6.86-1.27,4.63,4.63,0,0,1,3.24,3.38,6.6,6.6,0,0,1-.42,4.47,1.91,1.91,0,0,1-1.18.89c-1.59.38-10.43,1-10.43,1a15.85,15.85,0,0,0-.18,2.86,3.47,3.47,0,0,0,3.66,3.24h.89a5.92,5.92,0,0,0,5.12-3.47l1.55.56a7,7,0,0,1-2.67,3.24,7.2,7.2,0,0,1-4,1.32ZM46.05,37l9.77-.9s.09,0,.19-.19a5,5,0,0,0,.18-3.19A3.15,3.15,0,0,0,54,30.48a5.42,5.42,0,0,0-2-.23v0a5.93,5.93,0,0,0-5.12,3.48A21.09,21.09,0,0,0,46.05,37Z"/><path class="cls-1" d="M62.87,46.88c-.85-.8-1.74-1.69-1.51-2.91l4.18-23.73,1.65.28L63,44.25c-.1.37.33.84,1,1.5Z"/><g id="Symbol"><path class="cls-2" d="M95.84,5.77A31.14,31.14,0,1,1,65.92,54.88a1,1,0,0,1-.2-.6,1,1,0,0,1,1-1,1,1,0,0,1,.79.4A29.19,29.19,0,1,0,95.6,7.7a3.12,3.12,0,0,1-5.76-.32,29.1,29.1,0,0,0-7.75,1.4,1.19,1.19,0,0,1-.32.05,1,1,0,0,1-.3-1.9,31.68,31.68,0,0,1,8.34-1.49,3.11,3.11,0,0,1,6,.33Z"/><path class="cls-3" d="M125.8,23.76h0v0h0a37,37,0,0,1-18.6,46.05,2.09,2.09,0,0,1,0,.25A3.11,3.11,0,0,1,101.65,72a37.08,37.08,0,0,1-27.51-2.58h0a1,1,0,0,1,.45-1.84.93.93,0,0,1,.44.11h0a35.17,35.17,0,0,0,26,2.47v-.07a3.12,3.12,0,0,1,5.46-2A35.06,35.06,0,0,0,124,24.45h0v0a1.2,1.2,0,0,1,0-.33,1,1,0,0,1,1.88-.34Z"/><path class="cls-4" d="M133.71,40.69a3.11,3.11,0,0,1-1,5.88A42.83,42.83,0,0,1,91.1,79.37c-.8,0-1.6,0-2.38-.07h0a1,1,0,0,1,0-1.94h.08q1.13.06,2.28.06A40.88,40.88,0,0,0,130.82,46.2a3.12,3.12,0,0,1,1-5.78c.12-1.27.19-2.56.19-3.87A40.84,40.84,0,0,0,112.64,1.82h0a1,1,0,0,1-.47-.84,1,1,0,0,1,1-1,1,1,0,0,1,.55.16,42.8,42.8,0,0,1,20.24,36.39C133.91,38,133.84,39.32,133.71,40.69Z"/></g><path class="cls-1" d="M77.61,33.2H74.69L72.9,43.4a7.87,7.87,0,0,0,1.32,1.27L72,47c-.28,0-.64-.09-.71-.23l-.07-.1v0c-1-.94-1.78-1.93-1.54-3.29l1.8-10.2H69.57l.58-3.28H72l1.55-8.79h3.24l-1.55,8.79h2.92Z"/><path class="cls-1" d="M85.15,46.13a6.06,6.06,0,0,1-3.76-1.32,4.71,4.71,0,0,1-1.61-3.43,20.36,20.36,0,0,1,.37-4,22.32,22.32,0,0,1,1-3.94A6.69,6.69,0,0,1,84,30.1a8.51,8.51,0,0,1,4.24-1.41h.71a6.16,6.16,0,0,1,3.7,1.37,5,5,0,0,1,1.68,3.52A29.09,29.09,0,0,1,94,37l-.28,1.55-10.61.8a7.23,7.23,0,0,0,0,1.32,2.59,2.59,0,0,0,2.6,2.3h.71c1.41,0,3.07-1.45,3.66-3.19l3.13.65A8.54,8.54,0,0,1,90,44.81a7.93,7.93,0,0,1-4.18,1.32Zm2.51-14.24a3.84,3.84,0,0,0-3.41,2.3,10.34,10.34,0,0,0-.67,1.93c.43,0,6.88-.66,7.35-.66,0-.38,0-.94,0-1.27a2.52,2.52,0,0,0-2.6-2.3Z"/><path class="cls-1" d="M100.31,46.17H97.12l4.42-25h3.19l-2.6,14.75h.8l7.1-8.31,2.4,1.88-6,6.86A4.31,4.31,0,0,1,107.83,38l3,8.27h-3.66l-2.52-6.77a.51.51,0,0,0-.46-.32h-2.58Z"/></g></g></svg>