<svg xmlns="http://www.w3.org/2000/svg" viewBox="0 0 138.58 79.37"><defs><style>.cls-1,.cls-2{fill:#fff;}.cls-2{fill-rule:evenodd;}</style></defs><g id="Layer_2" data-name="Layer 2"><g id="B_W_Version_2" data-name="B&amp;W Version 2"><path class="cls-1" d="M1.6,46.46,0,46.17l2.63-15c.09-.38-.38-.8-1-1.51l1.17-1.12A4,4,0,0,1,4.28,31c.65-.47,1.78-1.22,2.48-1.64a4.2,4.2,0,0,1,1.37-.43,3.42,3.42,0,0,1,2.82.75L9.87,31a2.2,2.2,0,0,0-2.26-.19l-2.4,1.55L4,33.25Z"/><path class="cls-1" d="M17.1,46.41a5.17,5.17,0,0,1-5.31-4.84,27.54,27.54,0,0,1,1.46-8.36,6.88,6.88,0,0,1,2.3-3V30.2a7.58,7.58,0,0,1,6.86-1.27,4.63,4.63,0,0,1,3.24,3.38,6.6,6.6,0,0,1-.42,4.47,1.92,1.92,0,0,1-1.17.89c-1.6.38-10.43,1-10.43,1a16,16,0,0,0-.19,2.86,3.47,3.47,0,0,0,3.66,3.24H18a6,6,0,0,0,5.12-3.47l1.55.56A7,7,0,0,1,22,45.09a7.2,7.2,0,0,1-4,1.32ZM13.91,37l9.77-.9c.05,0,.09,0,.19-.18a5.15,5.15,0,0,0,.19-3.2,3.18,3.18,0,0,0-2.17-2.21,5.42,5.42,0,0,0-2-.23v0a5.93,5.93,0,0,0-5.12,3.48A21.09,21.09,0,0,0,13.91,37Z"/><path class="cls-1" d="M32.23,46.22l-3-17.85,1.74.28,2.58,15,8-15.31,1.7.28L33.88,46.5Z"/><path class="cls-1" d="M49.24,46.41a5.17,5.17,0,0,1-5.31-4.84,27.24,27.24,0,0,1,1.46-8.36,6.88,6.88,0,0,1,2.3-3V30.2a7.58,7.58,0,0,1,6.86-1.27,4.63,4.63,0,0,1,3.24,3.38,6.6,6.6,0,0,1-.42,4.47,1.91,1.91,0,0,1-1.18.89c-1.59.38-10.43,1-10.43,1a15.85,15.85,0,0,0-.18,2.86,3.47,3.47,0,0,0,3.66,3.24h.89a5.92,5.92,0,0,0,5.12-3.47l1.55.56a7,7,0,0,1-2.67,3.24,7.2,7.2,0,0,1-4,1.32ZM46.05,37l9.77-.9s.09,0,.19-.18a5.08,5.08,0,0,0,.18-3.2A3.15,3.15,0,0,0,54,30.48a5.42,5.42,0,0,0-2-.23v0a5.93,5.93,0,0,0-5.12,3.48A21.09,21.09,0,0,0,46.05,37Z"/><path class="cls-1" d="M62.87,46.88c-.85-.8-1.74-1.69-1.51-2.91l4.18-23.73,1.65.28L63,44.25c-.1.37.33.84,1,1.5Z"/><g id="Symbol"><path class="cls-2" d="M99,5.77A31.14,31.14,0,1,1,69,54.88a1,1,0,0,1-.21-.6,1,1,0,0,1,1-1,1,1,0,0,1,.78.4,29.2,29.2,0,1,0,28.12-46A3.12,3.12,0,0,1,93,7.38a29.25,29.25,0,0,0-7.75,1.4,1.06,1.06,0,0,1-.31.05,1,1,0,0,1-.3-1.9,31.6,31.6,0,0,1,8.34-1.49,3.11,3.11,0,0,1,6,.33Z"/><path class="cls-2" d="M128.92,23.76h0v0h0a37,37,0,0,1-18.6,46.05,2.09,2.09,0,0,1,0,.25A3.11,3.11,0,0,1,104.77,72a37.08,37.08,0,0,1-27.51-2.58h0a1,1,0,0,1-.53-.86,1,1,0,0,1,1-1,1,1,0,0,1,.45.11h0a35.14,35.14,0,0,0,26,2.47v-.07a3.12,3.12,0,0,1,5.47-2A35.06,35.06,0,0,0,127.1,24.45h0v0a.92.92,0,0,1-.06-.33,1,1,0,0,1,1-1A1,1,0,0,1,128.92,23.76Z"/><path class="cls-2" d="M136.83,40.69a3.11,3.11,0,0,1-1,5.88,42.83,42.83,0,0,1-41.64,32.8c-.79,0-1.59,0-2.37-.07h0a1,1,0,0,1,0-1.94h.08c.75,0,1.51.06,2.27.06A40.89,40.89,0,0,0,133.94,46.2a3.12,3.12,0,0,1,1-5.78c.12-1.27.19-2.56.19-3.87A40.84,40.84,0,0,0,115.76,1.82h0a1,1,0,0,1-.47-.84,1,1,0,0,1,1.51-.81A42.79,42.79,0,0,1,137,36.55C137,38,137,39.33,136.83,40.69Z"/></g><path class="cls-1" d="M80.72,33.21H77.81L76,43.4a8.15,8.15,0,0,0,1.33,1.27L75.1,47c-.28,0-.64-.09-.71-.23l-.08-.1v0c-1-.94-1.78-1.93-1.54-3.29l1.8-10.19H72.69l.58-3.29h1.88l1.55-8.79h3.24l-1.55,8.79H81.3Z"/><path class="cls-1" d="M88.26,46.13a6.08,6.08,0,0,1-3.76-1.32,4.68,4.68,0,0,1-1.6-3.43,20.36,20.36,0,0,1,.37-4,22.32,22.32,0,0,1,1-3.94A6.64,6.64,0,0,1,87.1,30.1a8.51,8.51,0,0,1,4.24-1.41H92a6.19,6.19,0,0,1,3.71,1.37,5,5,0,0,1,1.68,3.52A31.48,31.48,0,0,1,97.12,37l-.28,1.55-10.62.8a8.14,8.14,0,0,0,0,1.32,2.59,2.59,0,0,0,2.6,2.3h.7c1.41,0,3.08-1.45,3.67-3.19l3.12.65a8.48,8.48,0,0,1-3.17,4.42A8,8,0,0,1,89,46.13Zm2.52-14.24a3.87,3.87,0,0,0-3.42,2.3,12,12,0,0,0-.67,1.93c.43,0,6.89-.66,7.35-.66,0-.38,0-.94,0-1.27a2.52,2.52,0,0,0-2.6-2.3Z"/><path class="cls-1" d="M103.43,46.17h-3.19l4.41-25h3.2l-2.6,14.75H106c2.14-2.49,5.1-6,7.11-8.31l2.39,1.88-6,6.86a4.29,4.29,0,0,1,1.4,1.64l3,8.27h-3.66l-2.52-6.76a.51.51,0,0,0-.46-.33h-2.59Z"/></g></g></svg>