<svg xmlns="http://www.w3.org/2000/svg" viewBox="0 0 136.1 79.37"><defs><style>.cls-1,.cls-2{fill:#808285;}.cls-2,.cls-3,.cls-4{fill-rule:evenodd;}.cls-3{fill:#a7a9ac;}.cls-4{fill:#58595b;}</style></defs><g id="Layer_2" data-name="Layer 2"><g id="B_W_Version_2" data-name="B&amp;W Version 2"><path class="cls-1" d="M1.6,45.89,0,45.61l2.63-15c.09-.37-.38-.8-1-1.5L2.77,28a4,4,0,0,1,1.51,2.44c.65-.47,1.78-1.22,2.48-1.64a4,4,0,0,1,1.37-.42,3.39,3.39,0,0,1,2.82.75L9.87,30.39a2.17,2.17,0,0,0-2.26-.19l-2.4,1.55L4,32.69Z"/><path class="cls-1" d="M17.1,45.84A5.16,5.16,0,0,1,11.79,41a27.6,27.6,0,0,1,1.46-8.37,6.88,6.88,0,0,1,2.3-3v0a7.58,7.58,0,0,1,6.86-1.27,4.61,4.61,0,0,1,3.24,3.38,6.58,6.58,0,0,1-.42,4.46,2,2,0,0,1-1.17.9c-1.6.37-10.44,1-10.44,1A16,16,0,0,0,13.44,41,3.48,3.48,0,0,0,17.1,44.2H18a6,6,0,0,0,5.12-3.48l1.55.57A7.06,7.06,0,0,1,22,44.53a7.26,7.26,0,0,1-4,1.31ZM13.91,36.4l9.77-.89c.05,0,.09,0,.19-.19a5.11,5.11,0,0,0,.19-3.19,3.18,3.18,0,0,0-2.17-2.21,5.65,5.65,0,0,0-2-.24v.05a5.93,5.93,0,0,0-5.12,3.48A21.28,21.28,0,0,0,13.91,36.4Z"/><path class="cls-1" d="M32.23,45.66l-3-17.86,1.74.29,2.58,15,8-15.32,1.7.29L33.88,45.94Z"/><path class="cls-1" d="M49.24,45.84A5.16,5.16,0,0,1,43.93,41a27.3,27.3,0,0,1,1.46-8.37,6.88,6.88,0,0,1,2.3-3v0a7.58,7.58,0,0,1,6.86-1.27,4.61,4.61,0,0,1,3.24,3.38,6.58,6.58,0,0,1-.42,4.46,2,2,0,0,1-1.18.9c-1.59.37-10.43,1-10.43,1A16,16,0,0,0,45.58,41a3.48,3.48,0,0,0,3.66,3.24h.89a5.93,5.93,0,0,0,5.12-3.48l1.55.57a7,7,0,0,1-2.67,3.24,7.27,7.27,0,0,1-4,1.31ZM46.05,36.4l9.77-.89s.09,0,.19-.19a5,5,0,0,0,.18-3.19A3.15,3.15,0,0,0,54,29.92a5.65,5.65,0,0,0-2-.24v.05a5.93,5.93,0,0,0-5.12,3.48A21.28,21.28,0,0,0,46.05,36.4Z"/><path class="cls-1" d="M62.87,46.31c-.85-.79-1.74-1.69-1.51-2.91l4.18-23.72,1.65.28L63,43.68c-.1.38.33.85,1,1.51Z"/><g id="Symbol"><path class="cls-2" d="M96.48,5.77A31.14,31.14,0,1,1,66.57,54.88a.93.93,0,0,1-.21-.6,1,1,0,0,1,1.76-.57,29.19,29.19,0,1,0,28.12-46,3.12,3.12,0,0,1-5.76-.32,29.25,29.25,0,0,0-7.75,1.4,1.12,1.12,0,0,1-.31.05,1,1,0,0,1-.31-1.9,31.75,31.75,0,0,1,8.34-1.49,3.11,3.11,0,0,1,6,.33Z"/><path class="cls-3" d="M126.45,23.76h0v0h0a37,37,0,0,1-18.6,46.05c0,.08,0,.17,0,.25A3.12,3.12,0,0,1,102.29,72a37.06,37.06,0,0,1-27.5-2.58h0a1,1,0,0,1,.45-1.84,1,1,0,0,1,.45.11h0a35.17,35.17,0,0,0,26,2.47v-.07a3.11,3.11,0,0,1,5.46-2,35.09,35.09,0,0,0,17.53-43.59h0v0a.92.92,0,0,1-.06-.33,1,1,0,0,1,1-1A1,1,0,0,1,126.45,23.76Z"/><path class="cls-4" d="M134.36,40.68a3.12,3.12,0,0,1-1,5.89,42.82,42.82,0,0,1-41.63,32.8c-.8,0-1.59,0-2.38-.07h0a1,1,0,0,1,.06-1.94h.07c.76,0,1.51.06,2.28.06A40.87,40.87,0,0,0,131.46,46.2a3.12,3.12,0,0,1,1-5.78q.18-1.91.18-3.87A40.82,40.82,0,0,0,113.28,1.82l0,0a1,1,0,0,1-.47-.83,1,1,0,0,1,1-1,1,1,0,0,1,.54.16,42.81,42.81,0,0,1,20.25,36.39C134.56,38,134.49,39.33,134.36,40.68Z"/></g><path class="cls-1" d="M78.25,32.64H75.34l-1.8,10.2a9.2,9.2,0,0,0,1.33,1.27l-2.24,2.3c-.28,0-.64-.09-.71-.24l-.08-.09v.05c-1-.94-1.77-1.93-1.53-3.29l1.8-10.2H70.22l.58-3.29h1.88l1.54-8.78h3.25l-1.55,8.78h2.91Z"/><path class="cls-1" d="M85.79,45.56A6.11,6.11,0,0,1,82,44.25a4.69,4.69,0,0,1-1.6-3.43,19.41,19.41,0,0,1,.36-4,21.57,21.57,0,0,1,1-3.95,6.69,6.69,0,0,1,2.8-3.38,8.42,8.42,0,0,1,4.24-1.41h.71a6.18,6.18,0,0,1,3.71,1.36A5.06,5.06,0,0,1,95,33a29.59,29.59,0,0,1-.32,3.38L94.37,38l-10.62.8a8.26,8.26,0,0,0,0,1.32,2.61,2.61,0,0,0,2.6,2.3h.71c1.41,0,3.07-1.46,3.66-3.2l3.13.66a8.58,8.58,0,0,1-3.18,4.42,8,8,0,0,1-4.17,1.31ZM88.3,31.33a3.84,3.84,0,0,0-3.41,2.3,11,11,0,0,0-.67,1.92c.43,0,6.88-.65,7.35-.65,0-.38,0-.94,0-1.27a2.52,2.52,0,0,0-2.6-2.3Z"/><path class="cls-1" d="M101,45.61h-3.2l4.42-25h3.19l-2.6,14.75h.8L110.68,27l2.39,1.88-6,6.86a4.33,4.33,0,0,1,1.4,1.65l3,8.27h-3.67l-2.51-6.77a.53.53,0,0,0-.46-.33H102.2Z"/></g></g></svg>