<svg xmlns="http://www.w3.org/2000/svg" viewBox="0 0 69.74 79.37"><defs><style>.cls-1{fill:#fff;fill-rule:evenodd;}</style></defs><g id="Layer_2" data-name="Layer 2"><g id="B_W_Version_2" data-name="B&amp;W Version 2"><g id="Symbol"><path class="cls-1" d="M30.12,5.77A31.14,31.14,0,1,1,.21,54.88a.93.93,0,0,1-.21-.6,1,1,0,0,1,1.76-.57,29.19,29.19,0,1,0,28.12-46,3.12,3.12,0,0,1-5.76-.32,29.25,29.25,0,0,0-7.75,1.4,1.13,1.13,0,0,1-.32.05,1,1,0,0,1-.3-1.9,31.75,31.75,0,0,1,8.34-1.49,3.11,3.11,0,0,1,6,.33Z"/><path class="cls-1" d="M60.08,23.76h0v0h0A37,37,0,0,1,41.5,69.84c0,.08,0,.17,0,.25A3.12,3.12,0,0,1,35.93,72a37.06,37.06,0,0,1-27.5-2.58h0a1,1,0,0,1,.45-1.84,1,1,0,0,1,.45.11h0a35.17,35.17,0,0,0,26,2.47v-.07a3.12,3.12,0,0,1,5.46-2A35.09,35.09,0,0,0,58.27,24.45h0v0a.92.92,0,0,1-.06-.33,1,1,0,0,1,1.88-.34Z"/><path class="cls-1" d="M68,40.69a3.11,3.11,0,0,1-1,5.88,42.82,42.82,0,0,1-41.63,32.8c-.8,0-1.59,0-2.38-.07h0A1,1,0,0,1,23,77.36h.07c.76,0,1.51.06,2.28.06A40.87,40.87,0,0,0,65.1,46.2a3.12,3.12,0,0,1,1-5.78q.18-1.91.18-3.87A40.82,40.82,0,0,0,46.92,1.82h0A1,1,0,0,1,46.43,1a1,1,0,0,1,1-1A1,1,0,0,1,48,.16,42.81,42.81,0,0,1,68.2,36.55C68.2,38,68.13,39.33,68,40.69Z"/></g></g></g></svg>